<?xml version="1.0" standalone="no"?>
<!DOCTYPE svg PUBLIC "-//W3C//DTD SVG 20010904//EN"
 "http://www.w3.org/TR/2001/REC-SVG-20010904/DTD/svg10.dtd">
<svg version="1.0" xmlns="http://www.w3.org/2000/svg"
 width="1600.000000pt" height="1600.000000pt" viewBox="0 0 1600.000000 1600.000000"
 preserveAspectRatio="xMidYMid meet">
<metadata>
Created by potrace 1.11, written by Peter Selinger 2001-2013
</metadata>
<g transform="translate(0.000000,1600.000000) scale(0.100000,-0.100000)"
fill="#000000" stroke="none">
<path d="M7940 15993 c-521 -27 -902 -74 -1293 -159 -560 -121 -1023 -286
-1542 -551 -350 -179 -723 -433 -1050 -715 -140 -122 -415 -402 -526 -538
-439 -537 -724 -1124 -873 -1796 -168 -760 -161 -1635 19 -2341 192 -749 593
-1409 1168 -1921 519 -461 942 -691 2027 -1097 379 -142 586 -213 1495 -515
819 -272 981 -329 1200 -425 463 -202 776 -451 901 -718 20 -45 24 -67 24
-157 0 -340 -57 -548 -202 -741 -234 -311 -666 -488 -1338 -549 -154 -14 -524
-14 -683 0 -597 52 -1070 230 -1655 622 -226 151 -423 308 -755 601 -126 111
-234 205 -240 209 -12 6 -457 -537 -1749 -2136 l-648 -801 0 -106 0 -106 162
-125 c495 -380 873 -644 1238 -865 1013 -613 1861 -890 3085 -1007 1786 -171
3161 59 4415 739 1017 551 1777 1290 2203 2141 265 528 406 1068 447 1699 40
625 -49 1376 -232 1960 -111 357 -313 784 -511 1080 -290 433 -696 841 -1147
1152 -488 336 -1356 685 -2971 1193 -808 254 -1001 321 -1244 433 -333 153
-573 319 -705 486 -95 119 -125 206 -123 356 4 325 191 594 525 756 180 87
463 159 704 180 166 15 605 6 784 -16 452 -54 866 -189 1289 -419 233 -126
368 -220 710 -493 113 -90 211 -162 217 -161 24 6 2483 2977 2477 2993 -7 19
-333 258 -552 404 -266 178 -730 450 -996 583 -940 472 -1944 753 -3005 842
-348 30 -805 42 -1050 29z"/>
</g>
</svg>
