<svg xmlns="http://www.w3.org/2000/svg" viewBox="0 0 1200 900" fill="none">
  <title>Seattle and Eastside map centered on Bellevue and Microsoft headquarters</title>
  <defs>
    <linearGradient id="water-fill" x1="220" y1="52" x2="1008" y2="860" gradientUnits="userSpaceOnUse">
      <stop offset="0" stop-color="#24302d"/>
      <stop offset="0.55" stop-color="#2a3734"/>
      <stop offset="1" stop-color="#33433f"/>
    </linearGradient>
    <linearGradient id="water-edge" x1="236" y1="18" x2="942" y2="860" gradientUnits="userSpaceOnUse">
      <stop offset="0" stop-color="#607b73"/>
      <stop offset="1" stop-color="#425750"/>
    </linearGradient>
    <linearGradient id="highway" x1="146" y1="120" x2="932" y2="700" gradientUnits="userSpaceOnUse">
      <stop offset="0" stop-color="#536b63"/>
      <stop offset="0.45" stop-color="#6e8b81"/>
      <stop offset="1" stop-color="#597168"/>
    </linearGradient>
    <linearGradient id="local-road" x1="430" y1="290" x2="950" y2="510" gradientUnits="userSpaceOnUse">
      <stop offset="0" stop-color="#445851"/>
      <stop offset="1" stop-color="#556d65"/>
    </linearGradient>
    <radialGradient id="bellevue-glow" cx="0" cy="0" r="1" gradientUnits="userSpaceOnUse" gradientTransform="translate(615.6 548) rotate(90) scale(118)">
      <stop offset="0" stop-color="#5a7269" stop-opacity="0.54"/>
      <stop offset="1" stop-color="#5a7269" stop-opacity="0"/>
    </radialGradient>
    <radialGradient id="microsoft-glow" cx="0" cy="0" r="1" gradientUnits="userSpaceOnUse" gradientTransform="translate(882.9 390.5) rotate(90) scale(106)">
      <stop offset="0" stop-color="#68867c" stop-opacity="0.5"/>
      <stop offset="1" stop-color="#68867c" stop-opacity="0"/>
    </radialGradient>
  </defs>

  <g opacity="0.95">
    <path d="M298.2 0 309.1 65 323.6 125 341.8 195 360 265 378.2 335 392.7 405 407.3 480 421.8 555 436.4 630 450.9 705 469.1 775 487.3 840 509.1 900 723.6 900 709.1 830 690.9 760 672.7 685 658.2 610 640 530 621.8 455 603.6 380 585.5 310 560 240 530.9 170 501.8 105 472.7 45 443.6 0Z" fill="url(#water-fill)" fill-opacity="0.34" stroke="url(#water-edge)" stroke-opacity="0.46" stroke-width="2.2"/>
    <path d="M818.2 215 829.1 290 840 365 850.9 445 861.8 520 872.7 600 883.6 675 894.5 755 905.5 830 916.4 900 1054.5 900 1043.6 815 1032.7 730 1021.8 645 1010.9 560 1000 475 985.5 390 967.3 305 949.1 215Z" fill="url(#water-fill)" fill-opacity="0.22" stroke="url(#water-edge)" stroke-opacity="0.34" stroke-width="1.8"/>
    <path d="M796.4 370 800 310 796.4 250 785.5 185 767.3 115 745.5 45" stroke="#50675f" stroke-opacity="0.28" stroke-width="10" stroke-linecap="round" stroke-linejoin="round"/>
    <path d="M796.4 370 800 310 796.4 250 785.5 185 767.3 115 745.5 45" stroke="#6f8c82" stroke-opacity="0.36" stroke-width="2.2" stroke-linecap="round" stroke-linejoin="round"/>
    <path d="M425.5 595 465.5 630 516.4 640 567.3 610 589.1 540 581.8 465 541.8 405 487.3 390 440 425 418.2 505Z" fill="#111111" fill-opacity="0.8" stroke="#475d56" stroke-opacity="0.42" stroke-width="1.6"/>

    <path d="M127.3 0 130.9 75 134.5 150 138.2 225 141.8 300 145.5 375 149.1 450 149.1 525 149.1 600 145.5 675 141.8 750 134.5 825 127.3 900" stroke="url(#highway)" stroke-opacity="0.32" stroke-width="4.5" stroke-linecap="round"/>
    <path d="M236.4 390 294.5 390 352.7 390 410.9 390 469.1 390 523.6 390 578.2 395 629.1 400 683.6 400 738.2 400 792.7 400 840 395 887.3 390 934.5 375" stroke="url(#highway)" stroke-opacity="0.6" stroke-width="7" stroke-linecap="round" stroke-linejoin="round"/>
    <path d="M243.6 645 301.8 645 356.4 650 414.5 650 469.1 655 523.6 660 578.2 665 632.7 665 687.3 670 741.8 675 803.6 675 865.5 675 927.3 675" stroke="url(#highway)" stroke-opacity="0.5" stroke-width="6.4" stroke-linecap="round" stroke-linejoin="round"/>
    <path d="M603.6 75 610.9 145 621.8 215 632.7 290 643.6 360 650.9 435 654.5 510 654.5 585 647.3 660 632.7 730 618.2 800 603.6 870" stroke="url(#highway)" stroke-opacity="0.62" stroke-width="7" stroke-linecap="round" stroke-linejoin="round"/>

    <g stroke="#7f9e93" stroke-opacity="0.26" stroke-width="2" stroke-linecap="round">
      <path d="M469.1 390 523.6 390"/>
      <path d="M578.2 395 629.1 400"/>
      <path d="M469.1 655 523.6 660"/>
      <path d="M578.2 665 632.7 665"/>
    </g>

    <g stroke="url(#local-road)" stroke-opacity="0.34" stroke-width="3.2" stroke-linecap="round" stroke-linejoin="round">
      <path d="M643.6 465 694.5 455 745.5 440 796.4 420 843.6 400 890.9 375"/>
      <path d="M861.8 230 905.5 235 949.1 225 992.7 205 1036.4 175"/>
      <path d="M581.8 475 596.4 535 610.9 595 625.5 655"/>
      <path d="M574.5 500 621.8 500 665.5 500 709.1 500"/>
      <path d="M647.3 510 687.3 495 727.3 480 767.3 460"/>
      <path d="M829.1 345 865.5 335 898.2 355 909.1 395 898.2 430 865.5 450 832.7 435 818.2 395 829.1 345Z"/>
    </g>

    <path d="M615.6 548 882.9 390.5" stroke="#7a968c" stroke-opacity="0.14" stroke-width="2.5" stroke-dasharray="8 12" stroke-linecap="round"/>

    <circle cx="615.6" cy="548" r="118" fill="url(#bellevue-glow)"/>
    <circle cx="882.9" cy="390.5" r="106" fill="url(#microsoft-glow)"/>

    <g fill="#7d948b" fill-opacity="0.38" font-family="Inter, Arial, sans-serif" text-anchor="middle" letter-spacing="0.22em">
      <text x="557" y="362" font-size="18">LAKE WASHINGTON</text>
      <text x="935" y="545" font-size="16">LAKE SAMMAMISH</text>
      <text x="615.6" y="524" font-size="22">BELLEVUE</text>
      <text x="882.9" y="365" font-size="18">MICROSOFT HQ</text>
    </g>

    <g>
      <circle cx="615.6" cy="548" r="27" fill="none" stroke="#69847a" stroke-opacity="0.44" stroke-width="2"/>
      <circle cx="615.6" cy="548" r="11" fill="#69847a" fill-opacity="0.48"/>
      <circle cx="615.6" cy="548" r="4.5" fill="#e0ebe5" fill-opacity="0.8"/>
    </g>
    <g>
      <circle cx="882.9" cy="390.5" r="24" fill="none" stroke="#759287" stroke-opacity="0.4" stroke-width="2"/>
      <circle cx="882.9" cy="390.5" r="10" fill="#759287" fill-opacity="0.48"/>
      <circle cx="882.9" cy="390.5" r="4" fill="#e0ebe5" fill-opacity="0.78"/>
    </g>
  </g>
</svg>
